Description

Sinopse e detalhes

1933. Ann Darrow (Naomi Watts), uma atriz de vaudeville, enfrenta dificuldades para se sustentar, como vários outros americanos durante a Grande Depressão. Ela caminha pelas ruas de Manhattan pensando na possibilidade de trabalhar em um cabaré, até que a fome a faz roubar uma maçã. Ann é salva pelo cineasta Carl Denham (Jack Black), que oferece a ela o papel principal em sua próxima produção. Inicialmente indecisa, Ann aceita a oferta após saber que o roteirista é o conceituado dramaturgo Jack Driscoll (Adrien Brody). Na verdade Carl está em apuros, já que o patrocínio para concluir seu filme inacabado foi cancelado e sua antiga atriz principal abandonou o projeto. Apesar dos problemas, Carl embarca a equipe e o elenco de seu filme no cargueiro fretado S.S. Venture. O objetivo da viagem é chegar na Ilha da Caveira, que tem a fama de abrigar uma raça perdida e várias criaturas consideradas extintas.

Format : Matroska
Format version : Version 2
File size : 1.53 GiB
Duration : 3h 7mn
Overall bit rate : 1 167 Kbps
Encoded date : UTC 2013-05-19 10:38:34
Writing application : mkvmerge v5.8.0 ('No Sleep / Pillow') built on Sep 2 2012 15:37:04
Writing library : libebml v1.2.3 + libmatroska v1.3.0

Video
ID : 1
Format : AVC
Format/Info : Advanced Video Codec
Format profile : High@L4.1
Format settings, CABAC : Yes
Format settings, ReFrames : 4 frames
Muxing mode : Header stripping
Codec ID : V_MPEG4/ISO/AVC
Duration : 3h 7mn
Bit rate : 759 Kbps
Width : 720 pixels
Height : 304 pixels
Display aspect ratio : 2.35:1
Frame rate mode : Constant
Frame rate : 23.976 fps
Color space : YUV
Chroma subsampling : 4:2:0
Bit depth : 8 bits
Scan type : Progressive
Bits/(Pixel*Frame) : 0.145
Stream size : 1 017 MiB (65%)
Title : King-Kong ( by fantasma )
Writing library : x264 core 130 r2273 b3065e6
Encoding settings : cabac=1 / ref=3 / deblock=1:0:0 / analyse=0x3:0x113 / me=hex / subme=7 / psy=1 / psy_rd=1.00:0.00 / mixed_ref=1 / me_range=16 / chroma_me=1 / trellis=1 / 8x8dct=1 / cqm=0 / deadzone=21,11 / fast_pskip=1 / chroma_qp_offset=-2 / threads=3 / lookahead_threads=1 / sliced_threads=0 / nr=0 / decimate=1 / interlaced=0 / bluray_compat=0 / constrained_intra=0 / bframes=3 / b_pyramid=2 / b_adapt=1 / b_bias=0 / direct=1 / weightb=1 / open_gop=0 / weightp=2 / keyint=240 / keyint_min=23 / scenecut=40 / intra_refresh=0 / rc_lookahead=40 / rc=crf / mbtree=1 / crf=23.0 / qcomp=0.60 / qpmin=0 / qpmax=69 / qpstep=4 / vbv_maxrate=62500 / vbv_bufsize=78125 / crf_max=0.0 / nal_hrd=none / ip_ratio=1.40 / aq=1:1.00
Language : Portuguese
Default : Yes
Forced : No

Audio
ID : 2
Format : AC-3
Format/Info : Audio Coding 3
Mode extension : CM (complete main)
Format settings, Endianness : Big
Muxing mode : Header stripping
Codec ID : A_AC3
Duration : 3h 7mn
Bit rate mode : Constant
Bit rate : 384 Kbps
Channel(s) : 6 channels
Channel positions : Front: L C R, Side: L R, LFE
Sampling rate : 48.0 KHz
Bit depth : 16 bits
Compression mode : Lossy
Stream size : 514 MiB (33%)
Title : por
Language : Portuguese
Default : Yes
Forced : No

Text #1
ID : 3
Format : VobSub
Muxing mode : zlib
Codec ID : S_VOBSUB
Codec ID/Info : The same subtitle format used on DVDs
Title : English - (Closed Caption/Normal Size Char)
Language : English
Default : No
Forced : No

Text #2
ID : 4
Format : VobSub
Muxing mode : zlib
Codec ID : S_VOBSUB
Codec ID/Info : The same subtitle format used on DVDs
Title : Portuguese - (Closed Caption/Normal Size Char)
Language : Portuguese
Default : No
Forced : No

Text #3
ID : 5
Format : VobSub
Muxing mode : zlib
Codec ID : S_VOBSUB
Codec ID/Info : The same subtitle format used on DVDs
Title : Portuguese - (Closed Caption/Normal Size Char)
Language : Portuguese
Default : No
Forced : No

Text #4
ID : 6
Format : UTF-8
Codec ID : S_TEXT/UTF8
Codec ID/Info : UTF-8 Plain Text
Title : Credito
Language : Portuguese
Default : Yes
Forced : No

Menu
00:00:00.000 : en:Chapter 01
00:03:03.133 : en:Chapter 02
00:04:20.533 : en:Chapter 03
00:06:43.533 : en:Chapter 04
00:10:29.033 : en:Chapter 05
00:12:32.967 : en:Chapter 06
00:14:17.534 : en:Chapter 07
00:17:40.335 : en:Chapter 08
00:20:25.136 : en:Chapter 09
00:24:12.336 : en:Chapter 10
00:25:54.570 : en:Chapter 11
00:26:12.304 : en:Chapter 12
00:28:02.471 : en:Chapter 13
00:30:27.705 : en:Chapter 14
00:31:07.072 : en:Chapter 15
00:33:06.873 : en:Chapter 16
00:34:12.973 : en:Chapter 17
00:36:54.173 : en:Chapter 18
00:39:43.807 : en:Chapter 19
00:41:05.041 : en:Chapter 20
00:42:29.174 : en:Chapter 21
00:43:43.741 : en:Chapter 22
00:52:17.041 : en:Chapter 23
00:55:47.074 : en:Chapter 24
01:02:04.008 : en:Chapter 25
01:07:29.242 : en:Chapter 26
01:12:35.609 : en:Chapter 27
01:14:24.310 : en:Chapter 28
01:17:48.644 : en:Chapter 29
01:20:07.677 : en:Chapter 30
01:26:45.144 : en:Chapter 31
01:27:41.144 : en:Chapter 32
01:29:22.144 : en:Chapter 33
01:36:07.778 : en:Chapter 34
01:39:51.612 : en:Chapter 35
01:51:30.146 : en:Chapter 36
01:57:12.780 : en:Chapter 37
02:01:22.347 : en:Chapter 38
02:03:54.681 : en:Chapter 39
02:09:39.382 : en:Chapter 40
02:17:57.949 : en:Chapter 41
02:19:52.516 : en:Chapter 42
02:21:42.850 : en:Chapter 43
02:30:55.417 : en:Chapter 44
02:35:25.517 : en:Chapter 45
02:39:58.051 : en:Chapter 46
02:41:04.019 : en:Chapter 47
02:43:24.519 : en:Chapter 48
02:50:55.652 : en:Chapter 49
02:57:31.219 : en:Chapter 50
03:07:06.553 : en:Chapter 51
